<svg version="1.1" xmlns="http://www.w3.org/2000/svg" x="0" y="0" viewBox="0 0 1032.2 193" xml:space="preserve"><path fill="#FFF" d="M0 191.8v-171h21.7v151.7H117v19.3zm451.5 0v-171h71.3c7.5 0 14.5 1.6 20.8 4.7 6.3 3.1 11.8 7.3 16.4 12.5 4.6 5.2 8.1 11.1 10.7 17.6 2.6 6.5 3.8 13.1 3.8 19.9 0 7.1-1.2 13.9-3.6 20.5-2.4 6.6-5.8 12.4-10.2 17.6-4.4 5.1-9.7 9.2-15.9 12.3-6.2 3-13.1 4.6-20.6 4.6h-51.1v61.4h-21.6zm21.7-80.7h49.9c4.5 0 8.5-.9 12.2-2.8 3.6-1.8 6.7-4.4 9.3-7.7 2.6-3.3 4.6-7.1 6-11.4 1.4-4.3 2.2-8.9 2.2-13.7 0-5-.8-9.6-2.5-14-1.7-4.3-3.9-8.1-6.7-11.3-2.8-3.2-6.1-5.7-9.9-7.5-3.8-1.8-7.7-2.6-11.9-2.6h-48.4v71zm251.7-71h-59v151.7h-21.7V40.1h-59V20.8h139.7zm140.6 132.4v19.3H749.4v-171h114v19.3h-92.3v55.4h80.2v18h-80.2v59zm29.7 19.3V21.1h21.6v94.4l88.2-94.7h23.3l-68.6 75.4 72.5 95.6h-23.6l-62.1-83.1-29.7 30.9v52.2zM405.5 21v86.2c0 8.2-.1 16.3-1.7 24.2-1.6 8-4 15-7.9 21.2-3.9 6.2-9 11.2-15.6 15.1-6.6 3.9-14.8 5.8-24.7 5.8-9.8 0-17.9-1.9-24.4-5.7-6.5-3.8-11.7-8.7-15.6-14.8-3.9-6.1-7.8-13.1-9.5-21.1-1.7-8-3.6-13.9-3.6-22.5V72.9s-19.1 15.6-19.1 29.3c0 13.2-.1 26.6 2.4 36.9 2.5 10.4 7 19.5 12.7 27.5 5.7 7.9 13.4 14.3 22.7 19.1 9.3 4.8 20.9 7.2 34.6 7.2 13.2 0 24.4-2.3 33.7-6.9 9.2-4.6 16.8-10.8 22.5-18.7 5.8-7.9 9-17 11.7-27.3 2.6-10.4 3-21.3 3-32.9V21h-21.2z"/><path fill="#FFF" d="M350.6 24.4L320.9 0v14.7c-42 0-66.6 32.5-76.3 67.7-.8 3.1-1.6 6.1-2.2 9.2-.8 3.9-1.4 7.8-1.8 11.6-.2 2-.6 4.8-1.1 7.8-.4 2.6-.9 5.5-1.4 8.2-.9 5.4-1.3 9.1-2.3 14.2-.6 3.3-2.1 13-6 19.2-3.9 6.2-7 11.2-13.5 15.1-6.6 3.9-12.6 5.8-22.6 5.8-9.8 0-17.9-1.9-24.4-5.7-6.5-3.8-11.7-8.7-15.7-14.8-3.9-6.1-7.5-13.1-9.2-21.1-1.7-7.9-3.3-16.2-3.3-24.7V21H120v86.2c0 10.9 1.7 21.6 4.2 31.9 2.5 10.4 6.8 19.5 12.5 27.5 5.7 7.9 13.3 14.3 22.6 19.1 9.3 4.8 20.9 7.2 34.5 7.2 13.2 0 22.2-2.3 31.4-6.9 9.2-4.6 14.5-10.8 20.3-18.7 3.8-5.2 7.4-18.4 9.4-27.6 1-4.7 1.1-5.8 1.8-10.2.8-5.3 1.3-9.7 1.8-14.5.9-7.9 1.5-14.8 3.1-21.3 15.5-64.2 59.1-60.9 59.1-60.9v15.7l29.9-24.1z"/></svg>