<?xml version="1.0" encoding="utf-8"?>
<!-- Generator: Adobe Illustrator 16.0.3, SVG Export Plug-In . SVG Version: 6.00 Build 0)  -->
<!DOCTYPE svg PUBLIC "-//W3C//DTD SVG 1.1//EN" "http://www.w3.org/Graphics/SVG/1.1/DTD/svg11.dtd">
<svg version="1.1" id="Layer_1" xmlns="http://www.w3.org/2000/svg" xmlns:xlink="http://www.w3.org/1999/xlink" x="0px" y="0px"
	 width="1032.2px" height="193px" viewBox="0 0 1032.2 193" enable-background="new 0 0 1032.2 193" xml:space="preserve">
<polygon fill="#FFFFFF" points="0,191.8 0,20.8 21.7,20.8 21.7,172.5 117,172.5 117,191.8 "/>
<path fill="#FFFFFF" d="M451.5,191.8v-171h71.3c7.5,0,14.5,1.6,20.8,4.7c6.3,3.1,11.8,7.3,16.4,12.5c4.6,5.2,8.1,11.1,10.7,17.6
	c2.6,6.5,3.8,13.1,3.8,19.9c0,7.1-1.2,13.9-3.6,20.5c-2.4,6.6-5.8,12.4-10.2,17.6c-4.4,5.1-9.7,9.2-15.9,12.3
	c-6.2,3-13.1,4.6-20.6,4.6h-51.1v61.4H451.5z M473.2,111.1h49.9c4.5,0,8.5-0.9,12.2-2.8c3.6-1.8,6.7-4.4,9.3-7.7
	c2.6-3.3,4.6-7.1,6-11.4c1.4-4.3,2.2-8.9,2.2-13.7c0-5-0.8-9.6-2.5-14c-1.7-4.3-3.9-8.1-6.7-11.3c-2.8-3.2-6.1-5.7-9.9-7.5
	c-3.8-1.8-7.7-2.6-11.9-2.6h-48.4V111.1z"/>
<polygon fill="#FFFFFF" points="724.9,40.1 665.9,40.1 665.9,191.8 644.2,191.8 644.2,40.1 585.2,40.1 585.2,20.8 724.9,20.8 "/>
<polygon fill="#FFFFFF" points="865.5,172.5 865.5,191.8 749.4,191.8 749.4,20.8 863.4,20.8 863.4,40.1 771.1,40.1 771.1,95.5 
	851.3,95.5 851.3,113.5 771.1,113.5 771.1,172.5 "/>
<polygon fill="#FFFFFF" points="895.2,191.8 895.2,21.1 916.8,21.1 916.8,115.5 1005,20.8 1028.3,20.8 959.7,96.2 1032.2,191.8 
	1008.6,191.8 946.5,108.7 916.8,139.6 916.8,191.8 "/>
<path fill="#FFFFFF" d="M405.5,21v86.2c0,8.2-0.1,16.3-1.7,24.2c-1.6,8-4,15-7.9,21.2c-3.9,6.2-9,11.2-15.6,15.1
	c-6.6,3.9-14.8,5.8-24.7,5.8c-9.8,0-17.9-1.9-24.4-5.7c-6.5-3.8-11.7-8.7-15.6-14.8c-3.9-6.1-7.8-13.1-9.5-21.1
	c-1.7-8-3.6-13.9-3.6-22.5V72.9c0,0-19.1,15.6-19.1,29.3c0,13.2-0.1,26.6,2.4,36.9c2.5,10.4,7,19.5,12.7,27.5
	c5.7,7.9,13.4,14.3,22.7,19.1c9.3,4.8,20.9,7.2,34.6,7.2c13.2,0,24.4-2.3,33.7-6.9c9.2-4.6,16.8-10.8,22.5-18.7
	c5.8-7.9,9-17,11.7-27.3c2.6-10.4,3-21.3,3-32.9V21H405.5z"/>
<path fill="#FFFFFF" d="M350.6,24.4L320.9,0v14.7c-42,0-66.6,32.5-76.3,67.7c-0.8,3.1-1.6,6.1-2.2,9.2c-0.8,3.9-1.4,7.8-1.8,11.6
	c-0.2,2-0.6,4.8-1.1,7.8c-0.4,2.6-0.9,5.5-1.4,8.2c-0.9,5.4-1.3,9.1-2.3,14.2c-0.6,3.3-2.1,13-6,19.2c-3.9,6.2-7,11.2-13.5,15.1
	c-6.6,3.9-12.6,5.8-22.6,5.8c-9.8,0-17.9-1.9-24.4-5.7c-6.5-3.8-11.7-8.7-15.7-14.8c-3.9-6.1-7.5-13.1-9.2-21.1
	c-1.7-7.9-3.3-16.2-3.3-24.7V21h-21.1v86.2c0,10.9,1.7,21.6,4.2,31.9c2.5,10.4,6.8,19.5,12.5,27.5c5.7,7.9,13.3,14.3,22.6,19.1
	c9.3,4.8,20.9,7.2,34.5,7.2c13.2,0,22.2-2.3,31.4-6.9c9.2-4.6,14.5-10.8,20.3-18.7c3.8-5.2,7.4-18.4,9.4-27.6
	c1-4.7,1.1-5.8,1.8-10.2c0.8-5.3,1.3-9.7,1.8-14.5c0.9-7.9,1.5-14.8,3.1-21.3c15.5-64.2,59.1-60.9,59.1-60.9v15.7L350.6,24.4z"/>
</svg>
